<svg width="100" height="40" viewBox="0 0 100 40" fill="none" xmlns="http://www.w3.org/2000/svg">
<g clip-path="url(#clip0_12_9)">
<path d="M88.0555 16.3H88.0429C87.3054 19.7227 85.6666 25.1686 85.6666 27.6962C85.6792 30.3309 86.2024 31.6294 86.9714 32.1904C87.3244 32.4488 87.7341 32.5497 88.169 32.5497C89.5368 32.5497 90.6461 31.5348 90.6335 27.6836C90.6272 25.1497 88.8182 19.729 88.0492 16.3" fill="#B5B5B6"/>
<path d="M88.0554 16.2496C88.7992 12.8144 90.5641 7.38103 90.5515 4.85345C90.5389 0.995903 89.4232 0 88.0491 0C86.675 0 85.5657 1.02112 85.5846 4.87236C85.5972 7.39994 87.2801 12.8207 88.0491 16.2496H88.0554Z" fill="#B5B5B6"/>
<path d="M89.4989 19.8109H89.4926C90.9171 23.0192 92.7828 28.3832 94.2767 30.4318C95.8273 32.556 97.0249 33.2997 97.9703 33.2997C98.4116 33.2997 98.8024 33.1421 99.149 32.8837C100.258 32.0769 100.561 30.602 98.2792 27.4945C96.7853 25.446 92.1336 22.1305 89.4926 19.8172" fill="#EA5504"/>
<path d="M89.4737 19.7731C88.0555 16.5585 86.2843 11.1251 84.7841 9.08291C82.5087 5.97544 81.0148 5.81786 79.9117 6.63097C78.8024 7.44408 78.5061 8.91272 80.7816 12.0202C82.2754 14.0624 86.8263 17.4535 89.4611 19.7731H89.4674H89.4737Z" fill="#F39800"/>
<path d="M75.0269 13.7346C77.4725 16.2496 81.1094 20.624 83.221 22.017C85.4208 23.4604 86.8012 23.7378 87.69 23.41C88.0997 23.2587 88.4085 22.9688 88.648 22.6032C89.3981 21.456 89.1712 19.9748 85.9503 17.8632C83.8324 16.4702 78.3108 14.989 75.0332 13.7346" fill="#8FC31F"/>
<path d="M74.989 13.7094C72.5371 11.1882 68.9758 6.71922 66.8579 5.33252C63.637 3.21465 62.1872 3.59284 61.4309 4.74002C60.6808 5.8872 60.914 7.36844 64.1349 9.48631C66.2528 10.873 71.6987 12.4614 74.9764 13.7158H74.9827L74.989 13.7094Z" fill="#01B4FF"/>
<path d="M50.3624 24.6454C50.1418 24.6454 50.0346 25.219 49.3287 25.862C48.503 26.6183 47.7592 26.9083 46.1014 27.4945C44.2546 28.1437 43.6306 28.9505 43.0696 30.0914C42.7608 30.728 42.6599 31.4592 42.7355 31.8752C42.7734 32.0832 42.8112 32.2975 42.9499 32.2597C43.1389 32.203 43.6873 30.2931 45.5026 30.1733C46.3473 30.1166 47.4062 30.4255 47.797 31.7176C47.8537 31.9004 47.8726 32.0958 47.8852 32.2849C48.1059 34.9701 45.4774 37.4976 42.3006 37.3653C39.9306 37.2581 37.3589 35.758 36.9429 32.9404C36.5962 30.5893 37.5669 28.1374 39.1869 27.2613C39.4138 27.3306 39.7163 27.3999 40.0504 27.4693C40.6996 27.5953 41.248 27.6079 41.8216 27.5134C42.3763 27.4189 43.0318 27.0848 42.9562 26.5679C42.849 25.8115 41.6199 25.7107 40.977 25.717C40.2836 25.717 39.7667 25.8304 39.5083 25.8998C39.0104 25.4901 38.6952 25.0489 38.4872 24.2988C38.0523 22.786 38.9032 20.2332 41.3615 19.9811C42.9246 19.8172 43.9331 20.4664 44.5761 21.2796C45.219 22.099 45.4396 22.3952 45.6035 22.3448C45.7233 22.3007 45.7737 22.2124 45.7863 21.954V20.4034C45.7863 20.2395 45.7674 20.0756 45.7296 19.9244C45.5026 19.0104 43.3406 18.0523 41.0274 18.1595C40.2962 18.191 39.8172 18.2477 38.6889 18.6322C36.0479 19.5399 35.2032 21.9225 35.4302 23.6874C35.676 25.5216 37.214 26.4103 37.214 26.4103C34.5225 27.4567 32.3542 30.3498 33.306 34.1191C34.2578 37.8884 38.525 39.2562 41.4056 39.3193C44.5887 39.3886 46.8515 38.1406 48.2382 36.6467C49.3917 35.3987 50.0851 33.5897 49.8203 31.8311C49.7258 31.226 49.253 29.8645 48.2067 29.2216C48.2067 29.2216 48.7929 29.0199 49.1837 28.7236C50.0914 28.0492 50.4948 27.2171 50.6208 26.3725C50.7343 25.654 50.6145 24.9669 50.4948 24.7463C50.4948 24.7463 50.4506 24.6581 50.3687 24.6581L50.3624 24.6454Z" fill="#222222"/>
<path d="M59.3445 37.359C61.1346 37.359 67.1983 37.359 67.2046 37.359C69.7511 37.359 72.348 36.029 72.5497 32.6316C72.7577 29.1459 70.6461 27.8286 67.9925 27.8286H64.4564C63.5172 27.8286 62.9941 27.8538 62.4079 28.8749L61.2418 31.0684H65.9061C67.0029 31.0684 67.4819 31.7933 67.4819 32.6316C67.4819 33.4699 66.984 34.1128 65.9377 34.1128H61.6767C60.4917 34.1128 59.4391 33.7157 58.7394 32.8522C58.1784 32.1526 57.6805 31.2323 57.6805 29.6187C57.6805 27.879 58.2226 27.1352 58.7394 26.4734C59.3571 25.6981 60.3467 25.4081 61.267 25.3136L61.6956 25.2947H69.3414C70.2806 25.2947 70.8037 25.2632 71.3899 24.2484L72.5434 22.0738H59.4895C55.3987 22.0738 52.4299 25.3703 52.4299 29.7258C52.4299 33.6464 54.8062 36.7539 58.3045 37.2959C58.3045 37.2959 58.5881 37.359 59.3382 37.359H59.3445Z" fill="#222222"/>
<path d="M21.4434 26.6625C21.4434 25.2695 20.2899 25.3073 20.2899 25.3073H14.2263L10.6335 28.7047L17.6111 37.3653H12.8396C11.0684 37.3653 10.4255 36.508 9.44847 35.2096L6.12669 30.8037C6.04475 30.6902 5.84935 30.5326 5.5468 30.6335C5.37031 30.6902 5.30728 30.8541 5.29467 30.9864V37.3716H0V22.08H5.29467V28.5597L10.7154 23.202C11.2449 22.7041 11.6294 22.4141 12.1714 22.2565C12.5307 22.1494 12.953 22.099 13.5329 22.08C13.5392 22.08 13.5518 22.08 13.5581 22.08H33.9805L32.8144 24.2736C32.2534 25.2442 31.7491 25.3073 30.8856 25.3136H26.5994V37.3716H21.4434V26.6688V26.6625Z" fill="#222222"/>
</g>
<defs>
<clipPath id="clip0_12_9">
<rect width="100" height="39.3067" fill="white"/>
</clipPath>
</defs>
</svg>
