<svg width="120" height="48" viewBox="0 0 120 48" fill="none" xmlns="http://www.w3.org/2000/svg">
<g clip-path="url(#clip0_12_8)">
<path d="M105.667 19.56H105.651C104.767 23.6672 102.8 30.2023 102.8 33.2354C102.815 36.3971 103.443 37.9552 104.366 38.6284C104.789 38.9385 105.281 39.0596 105.803 39.0596C107.444 39.0596 108.775 37.8418 108.76 33.2203C108.753 30.1796 106.582 23.6747 105.659 19.56" fill="#B5B5B6"/>
<path d="M105.667 19.4995C106.559 15.3772 108.677 8.85723 108.662 5.82414C108.647 1.19508 107.308 0 105.659 0C104.01 0 102.679 1.22534 102.702 5.84683C102.717 8.87992 104.736 15.3848 105.659 19.4995H105.667Z" fill="#B5B5B6"/>
<path d="M107.399 23.7731H107.391C109.101 27.6231 111.339 34.0599 113.132 36.5181C114.993 39.0671 116.43 39.9597 117.564 39.9597C118.094 39.9597 118.563 39.7706 118.979 39.4605C120.31 38.4923 120.673 36.7224 117.935 32.9934C116.142 30.5352 110.56 26.5566 107.391 23.7807" fill="#EA5504"/>
<path d="M107.368 23.7277C105.667 19.8702 103.541 13.3502 101.741 10.8995C99.0104 7.17053 97.2178 6.98143 95.8941 7.95716C94.5629 8.9329 94.2074 10.6953 96.9379 14.4242C98.7306 16.8749 104.192 20.9442 107.353 23.7277H107.361H107.368Z" fill="#F39800"/>
<path d="M90.0322 16.4816C92.9669 19.4995 97.3313 24.7488 99.8651 26.4204C102.505 28.1525 104.161 28.4854 105.228 28.092C105.72 27.9105 106.09 27.5626 106.378 27.1239C107.278 25.7472 107.005 23.9697 103.14 21.4359C100.599 19.7643 93.9729 17.9868 90.0397 16.4816" fill="#8FC31F"/>
<path d="M89.9868 16.4513C87.0445 13.4258 82.7709 8.06304 80.2295 6.399C76.3643 3.85755 74.6247 4.31138 73.717 5.688C72.8169 7.06461 73.0968 8.84211 76.9619 11.3836C79.5033 13.0476 86.0385 14.9537 89.9717 16.4589H89.9792L89.9868 16.4513Z" fill="#01B4FF"/>
<path d="M60.4349 29.5745C60.1702 29.5745 60.0416 30.2628 59.1945 31.0344C58.2036 31.942 57.3111 32.29 55.3218 32.9934C53.1056 33.7725 52.3568 34.7406 51.6836 36.1097C51.313 36.8736 51.192 37.751 51.2827 38.2502C51.3281 38.4998 51.3735 38.757 51.5399 38.7116C51.7668 38.6436 52.4249 36.3517 54.6032 36.208C55.6168 36.1399 56.8875 36.5106 57.3565 38.0611C57.4245 38.2805 57.4472 38.515 57.4624 38.7419C57.7271 41.9641 54.573 44.9972 50.7608 44.8383C47.9168 44.7097 44.8308 42.9096 44.3316 39.5285C43.9156 36.7072 45.0804 33.7649 47.0243 32.7135C47.2966 32.7967 47.6596 32.8799 48.0605 32.9631C48.8396 33.1144 49.4977 33.1295 50.186 33.0161C50.8516 32.9026 51.6382 32.5017 51.5474 31.8815C51.4189 30.9738 49.9439 30.8528 49.1724 30.8604C48.3404 30.8604 47.7202 30.9965 47.41 31.0797C46.8125 30.5881 46.4343 30.0586 46.1847 29.1585C45.6628 27.3432 46.6839 24.2799 49.6338 23.9773C51.5096 23.7807 52.7198 24.5597 53.4914 25.5355C54.2629 26.5188 54.5276 26.8743 54.7243 26.8137C54.868 26.7608 54.9285 26.6549 54.9436 26.3448V24.4841C54.9436 24.2874 54.9209 24.0908 54.8755 23.9092C54.6032 22.8125 52.0088 21.6628 49.2329 21.7914C48.3555 21.8292 47.7807 21.8973 46.4267 22.3587C43.2575 23.4478 42.2439 26.307 42.5162 28.4248C42.8112 30.6259 44.6568 31.6924 44.6568 31.6924C41.4271 32.948 38.8251 36.4198 39.9672 40.943C41.1094 45.4661 46.2301 47.1075 49.6868 47.1831C53.5065 47.2663 56.2219 45.7687 57.8859 43.9761C59.2701 42.4784 60.1021 40.3076 59.7844 38.1973C59.671 37.4712 59.1037 35.8374 57.8481 35.0659C57.8481 35.0659 58.5515 34.8238 59.0205 34.4683C60.1097 33.659 60.5938 32.6606 60.7451 31.647C60.8812 30.7848 60.7375 29.9603 60.5938 29.6956C60.5938 29.6956 60.5408 29.5897 60.4425 29.5897L60.4349 29.5745Z" fill="white"/>
<path d="M71.2133 44.8308C73.3615 44.8308 80.6379 44.8308 80.6454 44.8308C83.7012 44.8308 86.8175 43.2348 87.0595 39.1579C87.3092 34.9751 84.7753 33.3943 81.5909 33.3943H77.3476C76.2206 33.3943 75.5928 33.4245 74.8894 34.6499L73.4901 37.2821H79.0873C80.4034 37.2821 80.9782 38.1519 80.9782 39.1579C80.9782 40.1639 80.3807 40.9354 79.1251 40.9354H74.012C72.59 40.9354 71.3268 40.4589 70.4872 39.4226C69.814 38.583 69.2165 37.4787 69.2165 35.5424C69.2165 33.4548 69.867 32.5622 70.4872 31.768C71.2285 30.8377 72.416 30.4898 73.5203 30.3763L74.0346 30.3536H83.2096C84.3366 30.3536 84.9644 30.3158 85.6678 29.098L87.052 26.4885H71.3873C66.4784 26.4885 62.9158 30.4444 62.9158 35.671C62.9158 40.3757 65.7674 44.1046 69.9653 44.7551C69.9653 44.7551 70.3057 44.8308 71.2058 44.8308H71.2133Z" fill="white"/>
<path d="M25.7321 31.995C25.7321 30.3234 24.3479 30.3687 24.3479 30.3687H17.0715L12.7602 34.4456L21.1333 44.8383H15.4075C13.2821 44.8383 12.5106 43.8096 11.3382 42.2515L7.35203 36.9644C7.2537 36.8282 7.01923 36.6391 6.65616 36.7602C6.44437 36.8282 6.36874 37.0249 6.35361 37.1837V44.8459H0V26.4961H6.35361V34.2717L12.8585 27.8424C13.4939 27.2449 13.9552 26.8969 14.6057 26.7079C15.0369 26.5793 15.5436 26.5188 16.2395 26.4961C16.2471 26.4961 16.2622 26.4961 16.2698 26.4961H40.7766L39.3772 29.1283C38.7041 30.2931 38.099 30.3687 37.0627 30.3763H31.9193V44.8459H25.7321V32.0025V31.995Z" fill="white"/>
</g>
<defs>
<clipPath id="clip0_12_8">
<rect width="120" height="47.168" fill="white"/>
</clipPath>
</defs>
</svg>
